<svg width="35" height="28" viewBox="0 0 35 28" fill="none" xmlns="http://www.w3.org/2000/svg">
<path d="M28.4148 14.4787L21.2594 20.1819L21.908 20.7193L30.1853 14.1195L22.0305 7.3694L21.3721 7.89386L28.4217 13.7288L5.06086 13.5146L5.05398 14.2645L28.4148 14.4787Z" fill="#353535"/>
<path d="M17.0402 27.8437C26.4363 27.9299 34.1372 21.7897 34.2072 14.1558C34.2772 6.52352 26.6902 0.242537 17.2941 0.156346C7.89801 0.0701563 0.197788 6.21091 0.127778 13.8432C0.0577524 21.4771 7.64404 27.7575 17.0402 27.8437ZM17.2881 0.811285C26.2396 0.893396 33.4684 6.87639 33.4017 14.1486C33.335 21.4222 25.9976 27.2721 17.0461 27.19C8.09524 27.1079 0.865851 21.1244 0.932566 13.8513C0.999275 6.57897 8.33721 0.729179 17.2881 0.811285Z" fill="#353535"/>
</svg>
