<svg width="79" height="63" viewBox="0 0 79 63" fill="none" xmlns="http://www.w3.org/2000/svg">
<path d="M7.65381 43.8748C7.59349 43.9119 7.52971 43.9459 7.4614 43.9751C5.07013 45.0065 2.31532 43.8329 1.24351 42.0892C0.925103 41.5711 1.1583 40.8485 1.764 40.4762C2.37084 40.1032 3.11979 40.2222 3.4382 40.7402C4.06637 41.7622 5.67738 42.3367 6.69043 41.899C7.34045 41.6184 8.04086 41.8551 8.25424 42.4288C8.44465 42.9426 8.17946 43.5517 7.65381 43.8748Z" fill="#3C3C3C"/>
<path d="M6.50381 41.9797C6.50381 41.9797 10.7803 54.2382 11.0133 55.5227C11.0133 55.5227 70.2244 24.2276 72.2228 15.453C72.2228 15.453 71.6532 9.48121 55.8314 19.8177L26.4723 24.812C26.4724 24.8119 25.1626 40.3154 6.50381 41.9797Z" fill="#3C3C3C"/>
<path d="M58.7612 27.5385C66.164 22.4969 71.5961 18.0345 72.1782 15.4811C72.1782 15.4811 71.6075 9.50998 55.7857 19.8464L58.7098 27.455L58.7612 27.5385Z" fill="#474646"/>
<path d="M26.3614 25.5791C25.8106 28.7145 22.6695 40.5373 6.50381 41.9805C6.50381 41.9805 10.7798 54.2382 11.0127 55.5225C11.0127 55.5225 19.5969 50.9859 30.3358 44.8832L26.3614 25.5791Z" fill="#474646"/>
<path d="M18.5613 45.666C18.8797 46.184 18.6465 46.9067 18.0408 47.279C17.4351 47.6513 16.685 47.533 16.3666 47.0149C16.0482 46.4969 16.2814 45.7742 16.8871 45.4019C17.4928 45.0297 18.2429 45.148 18.5613 45.666Z" fill="#3C3C3C"/>
<path d="M22.9507 42.968C23.2691 43.486 23.0359 44.2087 22.4302 44.581C21.8245 44.9533 21.0744 44.835 20.756 44.3169C20.4376 43.7989 20.6708 43.0762 21.2765 42.7039C21.8822 42.3317 22.6323 42.45 22.9507 42.968Z" fill="#3C3C3C"/>
<path d="M71.4956 14.2687L71.4759 14.2809C72.1566 14.7832 72.2236 15.4532 72.2236 15.4532C70.2246 24.2269 11.0125 55.5227 11.0125 55.5227L14.454 61.1219C14.454 61.1219 41.2259 45.3481 58.6424 35.2549C69.2415 29.1114 73.4031 23.7358 75.0496 20.479C75.9528 18.6916 75.3754 16.7978 73.8948 15.7566L71.4956 14.2687Z" fill="#626362"/>
<path d="M31.5138 29.9467C31.3217 30.0647 31.0999 30.1416 30.8673 30.1591C30.1844 30.2116 29.6613 29.7392 29.7006 29.1022L30.1083 22.3861C30.146 21.7513 30.731 21.1927 31.4166 21.1398C32.0995 21.0873 32.6226 21.5597 32.5833 22.1967L32.1755 28.9128C32.1503 29.3317 31.8868 29.7174 31.5138 29.9467Z" fill="#474646"/>
<path d="M37.0569 29.1258C36.8648 29.2439 36.643 29.3207 36.4104 29.3383C35.7275 29.3907 35.2044 28.9183 35.2437 28.2813L35.6514 21.5653C35.6897 20.9289 36.2752 20.3712 36.9597 20.319C37.6426 20.2665 38.1657 20.7389 38.1264 21.3759L37.7186 28.0919C37.6933 28.5108 37.4299 28.8965 37.0569 29.1258Z" fill="#474646"/>
<path d="M42.5999 28.305C42.4079 28.423 42.1861 28.4999 41.9535 28.5174C41.2705 28.5699 40.7474 28.0975 40.7867 27.4605L41.1945 20.7444C41.2317 20.1087 41.8177 19.5493 42.5028 19.4981C43.1857 19.4456 43.7088 19.918 43.6695 20.555L43.2617 27.2711C43.2364 27.69 42.973 28.0757 42.5999 28.305Z" fill="#474646"/>
<path d="M48.1429 27.484C47.9509 27.602 47.7291 27.6789 47.4965 27.6964C46.8135 27.7489 46.2904 27.2765 46.3297 26.6395L46.7375 19.9234C46.7763 19.2879 47.3595 18.729 48.0458 18.6771C48.7287 18.6246 49.2518 19.097 49.2125 19.734L48.8047 26.4501C48.7794 26.8691 48.516 27.2547 48.1429 27.484Z" fill="#474646"/>
</svg>
