<svg width="50" height="54" viewBox="0 0 50 54" fill="none" xmlns="http://www.w3.org/2000/svg">
<path d="M49.6091 22.1522C49.4919 21.405 48.8369 20.9329 48.1533 21.1021L43.8732 22.1593C43.3853 19.932 42.5678 17.8428 41.48 15.9541L45.1933 13.4195C45.7859 13.0158 45.9369 12.1796 45.5298 11.5631C45.5298 11.5631 44.8915 10.2985 42.6782 7.90844C40.4652 5.51788 39.2274 4.77887 39.2274 4.77887C38.6552 4.3405 37.883 4.50691 37.5103 5.14837L35.1751 9.16632C33.4227 7.99799 31.4859 7.12144 29.4218 6.60187L30.3873 1.97689C30.5417 1.23823 30.1022 0.531739 29.4105 0.40689C29.4105 0.40689 28.131 0 25.0008 0C21.8705 0 20.5115 0.422887 20.5115 0.422887C19.8203 0.549649 19.3825 1.25701 19.5392 1.99532L20.5184 6.61822C18.4563 7.14491 16.522 8.02755 14.773 9.20231L12.4263 5.19202C12.0518 4.55212 11.2782 4.3885 10.7075 4.8279C10.7075 4.8279 9.53632 5.5177 7.32283 7.90792C5.10967 10.2983 4.42524 11.6353 4.42524 11.6353C4.01935 12.2528 4.17327 13.0876 4.76722 13.49L8.4877 16.0116C7.40591 17.9044 6.59445 19.996 6.11321 22.2252L1.83066 21.1823C1.14688 21.0159 0.492717 21.4906 0.377116 22.2374C0.377116 22.2374 0.000366211 23.6192 0.000366211 27.0003C0.000366211 30.3804 0.391767 31.8483 0.391767 31.8483C0.509139 32.5948 1.16427 33.0676 1.84789 32.8984L6.12818 31.8409C6.61587 34.0681 7.43328 36.157 8.52103 38.0461L4.80779 40.5803C4.21513 40.9847 4.06379 41.8203 4.47097 42.437C4.47097 42.437 5.10919 43.7013 7.32267 46.0923C9.53568 48.4821 10.7736 49.2211 10.7736 49.2211C11.3455 49.6597 12.1182 49.4934 12.4909 48.852L14.826 44.834C16.5782 46.0027 18.515 46.8789 20.5791 47.3988L19.6136 52.0235C19.4592 52.7621 19.899 53.4686 20.5907 53.5931C20.5907 53.5931 21.8699 54.0003 25.0004 54C28.1302 54 29.4894 53.5775 29.4894 53.5775C30.1808 53.4509 30.6184 52.7433 30.4617 52.005L29.4825 47.3825C31.5448 46.8558 33.4792 45.9726 35.2281 44.7984L37.5747 48.808C37.9489 49.4486 38.7227 49.6115 39.2936 49.1717C39.2936 49.1717 40.4644 48.4826 42.6779 46.0921C44.8909 43.7019 45.5753 42.365 45.5753 42.365C45.9812 41.7472 45.8275 40.9135 45.2335 40.5107L41.5132 37.9887C42.5951 36.0963 43.4066 34.0043 43.8878 31.7751L48.1702 32.8177C48.8539 32.9848 49.508 32.5094 49.6235 31.7626C49.6235 31.7626 50.0002 30.3811 50.0002 27.0004C50.0007 23.6201 49.6091 22.1522 49.6091 22.1522ZM25.0006 33.2565C21.8013 33.2565 19.2078 30.4557 19.2078 27.0003C19.2078 23.545 21.8011 20.7441 25.0006 20.7441C28.2001 20.7441 30.7935 23.5448 30.7935 27.0003C30.7935 30.4555 28.2001 33.2565 25.0006 33.2565Z" fill="#A4A9AD"/>
<path d="M25.0004 16.7129C19.7397 16.7129 15.4752 21.3187 15.4752 27.0002C15.4752 32.6817 19.7397 37.2876 25.0004 37.2876C30.261 37.2876 34.5257 32.6817 34.5257 27.0002C34.5259 21.3189 30.261 16.7129 25.0004 16.7129ZM25.0004 33.2564C21.8011 33.2564 19.2076 30.4557 19.2076 27.0002C19.2076 23.545 21.8009 20.7441 25.0004 20.7441C28.1999 20.7441 30.7933 23.5448 30.7933 27.0002C30.7933 30.4555 28.1999 33.2564 25.0004 33.2564Z" fill="#333E48"/>
</svg>
